<svg width="112" height="112" fill="none" xmlns="http://www.w3.org/2000/svg"><path d="M56 102c25.405 0 46-20.595 46-46S81.405 10 56 10 10 30.595 10 56s20.595 46 46 46z" fill="url(#paint0_linear)"/><path d="M56 56s-9.48 3.16-15.8-3.16-3.16-15.8-3.16-15.8 5.53-1.843 10.959.102M56 56s9.48-3.16 15.8 3.16 3.16 15.8 3.16 15.8-6.733 2.244-12.634-.833M56 56s3.16 9.48-3.16 15.8-15.8 3.16-15.8 3.16-2.018-6.056.398-11.714M56 56s-3.16-9.48 3.16-15.8 15.8-3.16 15.8-3.16 2.266 6.8-.88 12.721" stroke="#fff" stroke-width="2.438" stroke-linecap="round"/><defs><linearGradient id="paint0_linear" x1="-9.047" y1="56" x2="56" y2="121.047" gradientUnits="userSpaceOnUse"><stop stop-color="#8383EF"/><stop offset="1" stop-color="#68DEC2"/></linearGradient></defs></svg>